<svg xmlns="http://www.w3.org/2000/svg" width="47" height="36" viewBox="0 0 47 36">
  <g fill="none" fill-rule="evenodd" transform="translate(0 -3)">
    <path fill="#1D1D1D" d="M40.159668 5.05517578C40.159668 5.68864249 39.9893409 6.18253404 39.6486816 6.53686523 39.3080224 6.89119643 38.8312205 7.06835938 38.2182617 7.06835938 37.6303682 7.06835938 37.1626808 6.88720884 36.8151855 6.52490234 36.4676903 6.16259584 36.2939453 5.67269189 36.2939453 5.05517578 36.2939453 4.42398773 36.4642724 3.93351412 36.8049316 3.58374023 37.1455909 3.23396635 37.6235321 3.05908203 38.2387695 3.05908203 38.6193053 3.05908203 38.9554022 3.13997315 39.2470703 3.30175781 39.5387384 3.46354248 39.7637525 3.69539237 39.9221191 3.99731445 40.0804858 4.29923654 40.159668 4.65185345 40.159668 5.05517578zM37.6508789 5.05517578C37.6508789 5.38785974 37.6953121 5.64135655 37.7841797 5.81567383 37.8730473 5.98999111 38.0222971 6.07714844 38.2319336 6.07714844 38.4392914 6.07714844 38.5856929 5.98999111 38.6711426 5.81567383 38.7565922 5.64135655 38.7993164 5.38785974 38.7993164 5.05517578 38.7993164 4.72477048 38.7560226 4.47526126 38.6694336 4.30664062 38.5828446 4.13801999 38.4347341 4.05371094 38.2250977 4.05371094 38.0200185 4.05371094 37.8730473 4.13745033 37.7841797 4.30493164 37.6953121 4.47241295 37.6508789 4.72249183 37.6508789 5.05517578zM18.1796875 10.1328125C18.1796875 10.8463577 17.9635438 11.4531225 17.53125 11.953125 17.0989562 12.4531275 16.4921914 12.7968741 15.7109375 12.984375L15.7109375 13.03125C16.6328171 13.1458339 17.3307268 13.425779 17.8046875 13.8710938 18.2786482 14.3164085 18.515625 14.9166629 18.515625 15.671875 18.515625 16.7708388 18.1171915 17.626299 17.3203125 18.2382812 16.5234335 18.8502635 15.3854241 19.15625 13.90625 19.15625 12.6666605 19.15625 11.5677131 18.9505229 10.609375 18.5390625L10.609375 16.484375C11.0520855 16.7083345 11.5390598 16.8906243 12.0703125 17.03125 12.6015652 17.1718757 13.1276016 17.2421875 13.6484375 17.2421875 14.4453165 17.2421875 15.0338523 17.1067722 15.4140625 16.8359375 15.7942727 16.5651028 15.984375 16.1302113 15.984375 15.53125 15.984375 14.994789 15.7656272 14.6145845 15.328125 14.390625 14.8906228 14.1666655 14.1927131 14.0546875 13.234375 14.0546875L12.3671875 14.0546875 12.3671875 12.203125 13.25 12.203125C14.1354211 12.203125 14.78255 12.0872407 15.1914062 11.8554688 15.6002625 11.6236968 15.8046875 11.2265653 15.8046875 10.6640625 15.8046875 9.79947484 15.2630262 9.3671875 14.1796875 9.3671875 13.8046856 9.3671875 13.423179 9.42968687 13.0351562 9.5546875 12.6471335 9.67968813 12.2161482 9.8958318 11.7421875 10.203125L10.625 8.5390625C11.6666719 7.78905875 12.908847 7.4140625 14.3515625 7.4140625 15.5338601 7.4140625 16.4674445 7.65364344 17.1523438 8.1328125 17.837243 8.61198156 18.1796875 9.27864156 18.1796875 10.1328125zM19.9053125 14.1484375C19.9053125 11.8880095 20.3831723 10.2057347 21.3389062 9.1015625 22.2946402 7.99739031 23.7256155 7.4453125 25.631875 7.4453125 26.2829199 7.4453125 26.7933315 7.48437461 27.163125 7.5625L27.163125 9.4921875C26.699581 9.38802031 26.2412523 9.3359375 25.788125 9.3359375 24.9599959 9.3359375 24.2842214 9.46093625 23.7607812 9.7109375 23.2373411 9.96093875 22.845418 10.3307267 22.585 10.8203125 22.324582 11.3098983 22.1709377 12.0052038 22.1240625 12.90625L22.225625 12.90625C22.7412526 12.0208289 23.5667651 11.578125 24.7021875 11.578125 25.7230259 11.578125 26.5224971 11.8984343 27.100625 12.5390625 27.6787529 13.1796907 27.9678125 14.0650985 27.9678125 15.1953125 27.9678125 16.4140686 27.6240659 17.3789027 26.9365625 18.0898438 26.2490591 18.8007848 25.2959436 19.15625 24.0771875 19.15625 23.2334333 19.15625 22.4977635 18.9609395 21.8701562 18.5703125 21.2425489 18.1796855 20.7581788 17.6093787 20.4170312 16.859375 20.0758837 16.1093712 19.9053125 15.2057345 19.9053125 14.1484375zM24.0303125 17.2265625C24.5459401 17.2265625 24.9417694 17.0533871 25.2178125 16.7070312 25.4938555 16.3606754 25.631875 15.8671907 25.631875 15.2265625 25.631875 14.669268 25.50297 14.2304704 25.2451562 13.9101562 24.9873425 13.5898421 24.5980234 13.4296875 24.0771875 13.4296875 23.5876017 13.4296875 23.1696371 13.5885401 22.8232812 13.90625 22.4769253 14.2239599 22.30375 14.5937479 22.30375 15.015625 22.30375 15.6354198 22.4665088 16.158852 22.7920312 16.5859375 23.1175537 17.013023 23.53031 17.2265625 24.0303125 17.2265625zM37.248125 13.2890625C37.248125 15.2838641 36.9213053 16.7604119 36.2676562 17.71875 35.6140071 18.6770881 34.6075068 19.15625 33.248125 19.15625 31.9304101 19.15625 30.9369304 18.6614633 30.2676562 17.671875 29.5983821 16.6822867 29.26375 15.2213638 29.26375 13.2890625 29.26375 11.2734274 29.5892676 9.7877652 30.2403125 8.83203125 30.8913574 7.8762973 31.8939515 7.3984375 33.248125 7.3984375 34.5658399 7.3984375 35.5619237 7.8984325 36.2364062 8.8984375 36.9108888 9.8984425 37.248125 11.3619695 37.248125 13.2890625zM31.6621875 13.2890625C31.6621875 14.6901112 31.78328 15.6940074 32.0254687 16.3007812 32.2676574 16.9075551 32.6752055 17.2109375 33.248125 17.2109375 33.8106278 17.2109375 34.2168737 16.9036489 34.466875 16.2890625 34.7168762 15.6744761 34.841875 14.6744861 34.841875 13.2890625 34.841875 11.8880138 34.7155742 10.8815135 34.4629687 10.2695312 34.2103633 9.65754902 33.8054194 9.3515625 33.248125 9.3515625 32.6804138 9.3515625 32.2741679 9.65754902 32.029375 10.2695312 31.7845821 10.8815135 31.6621875 11.8880138 31.6621875 13.2890625zM14.6640625 26L13 21.6328125 14.2460938 21.6328125 15.0898438 24.1210938C15.1835942 24.4361995 15.2421874 24.7343736 15.265625 25.015625L15.2890625 25.015625C15.3020834 24.7656237 15.3606766 24.4674496 15.4648438 24.1210938L16.3046875 21.6328125 17.5507812 21.6328125 15.8867188 26 14.6640625 26zM19.115 20.5039062C19.115 20.1158835 19.3311437 19.921875 19.7634375 19.921875 20.1957313 19.921875 20.411875 20.1158835 20.411875 20.5039062 20.411875 20.688803 20.3578391 20.8326818 20.2497656 20.9355469 20.1416922 21.038412 19.9795844 21.0898438 19.7634375 21.0898438 19.3311437 21.0898438 19.115 20.8945332 19.115 20.5039062zM20.3571875 26L19.1657813 26 19.1657813 21.6328125 20.3571875 21.6328125 20.3571875 26zM24.4057813 22.3984375C24.1531758 22.3984375 23.9552612 22.4785148 23.8120313 22.6386719 23.6688014 22.7988289 23.586771 23.0260402 23.5659375 23.3203125L25.2378125 23.3203125C25.2326042 23.0260402 25.155782 22.7988289 25.0073438 22.6386719 24.8589055 22.4785148 24.6583867 22.3984375 24.4057813 22.3984375zM24.57375 26.078125C23.8706215 26.078125 23.3211478 25.8841165 22.9253125 25.4960938 22.5294772 25.108071 22.3315625 24.5585973 22.3315625 23.8476562 22.3315625 23.1158818 22.5145034 22.5501322 22.8803906 22.1503906 23.2462779 21.750649 23.7521322 21.5507812 24.3979688 21.5507812 25.0151594 21.5507812 25.4956233 21.7265607 25.839375 22.078125 26.1831267 22.4296893 26.355 22.9153615 26.355 23.5351562L26.355 24.1132812 23.5385938 24.1132812C23.5516147 24.4518246 23.6518741 24.7161449 23.839375 24.90625 24.026876 25.0963551 24.2898942 25.1914062 24.6284375 25.1914062 24.8914597 25.1914062 25.1401551 25.1640628 25.3745313 25.109375 25.6089074 25.0546872 25.8536967 24.9674485 26.1089063 24.8476562L26.1089063 25.7695312C25.9005719 25.8736984 25.6779179 25.9511716 25.4409375 26.0019531 25.2039572 26.0527346 24.9148976 26.078125 24.57375 26.078125zM31.9035938 26L31.5676563 24.4726562 31.1145313 22.5429688 31.0871875 22.5429688 30.2903125 26 29.0090625 26 27.766875 21.6328125 28.954375 21.6328125 29.4582813 23.5664062C29.5390108 23.9127621 29.6210413 24.390622 29.704375 25L29.7278125 25C29.7382292 24.8020823 29.7838017 24.4882834 29.8645313 24.0585938L29.9270313 23.7265625 30.4660938 21.6328125 31.7785938 21.6328125 32.2903125 23.7265625C32.3007292 23.7838545 32.3170051 23.868489 32.3391407 23.9804688 32.3612762 24.0924485 32.3827603 24.2115879 32.4035938 24.3378906 32.4244272 24.4641933 32.4433072 24.58789 32.4602344 24.7089844 32.4771616 24.8300787 32.4869271 24.927083 32.4895313 25L32.5129688 25C32.5364064 24.8124991 32.5780726 24.5553402 32.6379688 24.2285156 32.6978649 23.9016911 32.7408332 23.6809902 32.766875 23.5664062L33.2903125 21.6328125 34.4582813 21.6328125 33.2004688 26 31.9035938 26z"/>
    <path fill="#4A90E2" d="M34.921875 29.590332L35.1125488 34.295166 39.6835938 33.6818848C43.9733073 30.9470215 46.190918 29.0772298 46.3364258 28.0725098 46.4248975 27.4616196 46.9156998 25.0910934 45.8439941 23.5964355 44.2275391 21.342041 40.1342252 19.2112818 37.7824707 19.0649414L38.078125 19.1491699C41.4910482 21.2891439 42.9134115 23.2054036 42.3452148 24.8979492 41.4929199 27.4367676 39.732666 27.7329102 38.4335938 28.3046875 37.5675456 28.6858724 36.3969727 29.1144206 34.921875 29.590332zM9.11759292 19.3913574C4.00592399 22.0743001 2.98459473 24.6109212 6.05360514 27.0012207 9.12261556 29.3915202 15.1947537 30.3400065 24.2700195 29.8466797 24.2628028 27.6420898 24.2591945 26.3893229 24.2591945 26.0883789 24.2591945 25.7874349 24.2888092 26.0582682 24.3480387 26.9008789L32.1415187 32.6713867 24.2154704 38.1757812 23.9999171 34.7141113C12.7233872 34.3706868 6.30761571 33.4585775 4.75260269 31.9777832 3.6309298 30.9096463.952553862 29.4592285.204506987 26.7023926-.543539888 23.9455566.455948892 20.9060059 8.39125163 19"/>
  </g>
</svg>
