<?xml version="1.0" standalone="no"?>
<!DOCTYPE svg PUBLIC "-//W3C//DTD SVG 20010904//EN"
 "http://www.w3.org/TR/2001/REC-SVG-20010904/DTD/svg10.dtd">
<svg version="1.0" xmlns="http://www.w3.org/2000/svg"
 width="412.000000pt" height="412.000000pt" viewBox="0 0 412.000000 412.000000"
 preserveAspectRatio="xMidYMid meet">
<g transform="translate(0.000000,412.000000) scale(0.100000,-0.100000)"
fill="#000000" stroke="none">
<path d="M1888 4115 c-3 -2 -24 -5 -153 -21 -27 -3 -77 -13 -110 -21 -33 -8
-67 -16 -75 -17 -107 -19 -410 -143 -525 -217 -16 -10 -37 -22 -45 -26 -27
-12 -115 -75 -122 -86 -4 -7 -8 -8 -8 -3 0 4 -15 -5 -33 -20 -19 -16 -48 -40
-66 -54 -46 -36 -231 -219 -266 -264 -16 -20 -38 -47 -49 -59 -10 -12 -26 -33
-34 -47 -9 -14 -22 -29 -29 -33 -7 -4 -13 -13 -13 -19 0 -6 -10 -25 -23 -42
-34 -45 -162 -277 -167 -301 -1 -9 -13 -39 -27 -75 -26 -61 -76 -221 -87 -275
-2 -5 -8 -35 -14 -65 -6 -30 -14 -73 -16 -95 -3 -22 -5 -40 -6 -40 -7 0 -14
-134 -14 -270 -1 -143 6 -260 19 -319 2 -12 7 -37 10 -56 12 -69 22 -116 34
-160 21 -76 83 -254 92 -264 5 -6 9 -18 9 -28 0 -10 5 -18 10 -18 6 0 10 -6
10 -14 0 -13 46 -106 97 -194 115 -201 320 -433 513 -580 30 -23 61 -47 68
-53 30 -25 230 -142 296 -172 104 -49 231 -101 238 -98 2 1 19 -5 38 -13 19
-8 38 -15 43 -15 4 -1 8 -1 10 -2 1 0 9 -2 17 -4 8 -2 53 -12 100 -23 47 -12
105 -23 130 -27 25 -3 70 -9 100 -12 97 -13 495 -7 495 7 0 1 11 3 25 5 89 10
108 14 270 55 48 13 148 48 189 67 18 8 39 16 45 17 6 1 58 26 116 55 58 30
115 59 127 65 13 6 23 14 23 19 0 4 4 7 10 7 16 0 145 92 259 185 42 34 204
198 238 240 58 73 88 113 103 135 8 12 23 32 32 45 43 56 173 299 165 308 -1
2 5 14 14 27 9 14 26 54 38 90 12 36 26 74 31 85 7 17 14 40 25 90 2 6 10 38
19 73 9 34 14 67 11 72 -3 6 -1 10 4 10 6 0 10 3 9 8 -2 9 13 119 19 147 9 36
10 403 2 452 -5 26 -11 68 -14 93 -13 103 -63 300 -99 389 -14 34 -23 61 -21
61 8 0 -139 294 -155 310 -10 10 -31 45 -36 63 -4 9 -9 17 -13 17 -4 0 -15 15
-26 33 -10 17 -24 37 -29 43 -6 6 -22 26 -36 44 -81 107 -314 340 -340 340 -6
0 -10 3 -10 8 0 4 -17 18 -38 32 -20 14 -42 29 -49 35 -7 5 -18 15 -25 20 -39
32 -343 195 -362 195 -2 0 -21 8 -42 17 -22 9 -41 17 -44 18 -3 0 -34 11 -70
22 -70 24 -255 71 -280 71 -8 0 -26 3 -40 6 -63 13 -118 17 -297 21 -105 2
-193 2 -195 0z"/>
</g>
</svg>
