<svg xmlns="http://www.w3.org/2000/svg" width="56" height="35" viewBox="0 0 56 35">
  <g fill-rule="evenodd" opacity=".978">
    <path d="M3.02807617,14.0693359 L20.054854,4.35566453 L36.814209,13.909668 L52.9875488,14.0756836 L53.0795898,24.067627 L2.97900391,23.8789062 L3.02807617,14.0693359 Z M1.65390978,12.7758988 L0,10.8673124 L19.9482719,0 L28.060791,4.16577148 L28.0522461,1.16870117 L30.9953613,1.13818359 L31.001709,6.23730469 L37.4887695,9.96655273 L54.8391113,10.0415039 L54.9970703,12.059082 L36.7468262,11.9790039 L19.9482719,2.85806171 L1.65390978,12.7758988 Z M7.24563937,16.5372834 L7.24563937,21.5856144 L12.747249,21.5856144 L12.747249,16.5372834 L7.24563937,16.5372834 Z M16.7935135,16.5372834 L16.7935135,21.5856144 L22.2951231,21.5856144 L22.2951231,16.5372834 L16.7935135,16.5372834 Z M35.0804617,16.3772318 L35.0804617,18.5986579 L40.5820713,18.5986579 L40.5820713,16.3772318 L35.0804617,16.3772318 Z M43.2373111,16.3772318 L43.2373111,18.5986579 L48.7389207,18.5986579 L48.7389207,16.3772318 L43.2373111,16.3772318 Z M24.0175794,12.1719243 C24.0175794,10.4469027 22.2990166,9.14022193 20.179062,9.14022193 C18.0591074,9.14022193 16.3405447,10.4975613 16.3405447,12.1719243 C16.3405447,12.232709 24.0175794,12.2212601 24.0175794,12.1719243 Z M26.3804324,16.5372834 L26.3804324,21.5856144 L31.8820421,21.5856144 L31.8820421,16.5372834 L26.3804324,16.5372834 Z"/>
    <path d="M2.97375488,23 L36.6141499,23.2436521 L52.9632282,23.2436521 L53.0159912,32.0594482 L55.013855,32.0706787 L55,34.8783907 L24.0740967,34.8783907 L24.0389404,27.2871032 L15.958252,27.0223389 L15.9934082,35 L1,35 L1,32.0217285 L2.97375488,32.0217285 L2.97375488,23 Z M7.35588397,25.7351473 L7.35588397,30.4955271 L12.8818772,30.4955271 L12.8818772,25.7351473 L7.35588397,25.7351473 Z M35.1352012,26.6315841 L35.1352012,31.3919639 L40.6611944,31.3919639 L40.6611944,26.6315841 L35.1352012,26.6315841 Z M43.7975689,26.6315841 L43.7975689,31.3919639 L49.3235621,31.3919639 L49.3235621,26.6315841 L43.7975689,26.6315841 Z"/>
  </g>
</svg>
