<svg xmlns="http://www.w3.org/2000/svg" width="56" height="34" viewBox="0 0 56 34">
  <path fill-rule="evenodd" d="M294.528237,687.328099 L311.074641,675.650353 L327.834732,687.613214 L344.127729,687.613214 L344.127729,701.13382 L346.157514,701.13382 L346.157514,703.798053 L314.788713,703.798053 L314.788713,690.823621 L307.509492,690.823621 L307.509492,703.940357 L292.342747,703.940357 L292.342747,701.007937 L294.528237,701.007937 L294.528237,687.328099 Z M292.655542,686.573439 L291,684.09754 L310.967953,670 L318.510769,675.153836 L318.510769,671.284378 L322.479437,671.284378 L322.479437,678.300123 L328.591986,682.450428 L346.054265,682.450428 L346.054265,685.827202 L328.000409,685.827202 L310.967953,673.707599 L292.655542,686.573439 Z M298.676829,690.694996 L298.676829,697.243906 L304.183867,697.243906 L304.183867,690.694996 L298.676829,690.694996 Z M317.728203,690.694996 L317.728203,697.243906 L323.23524,697.243906 L323.23524,690.694996 L317.728203,690.694996 Z M326.360856,690.694996 L326.360856,697.243906 L331.867894,697.243906 L331.867894,690.694996 L326.360856,690.694996 Z M334.99351,690.694996 L334.99351,697.243906 L340.500548,697.243906 L340.500548,690.694996 L334.99351,690.694996 Z" transform="translate(-291 -670)"/>
</svg>
